<svg width="256" height="22" viewBox="0 0 256 22" fill="none" xmlns="http://www.w3.org/2000/svg">
<path d="M5.00679e-06 21.64V0.039988H12.76V0.43999H0.400005V11.88H9.52001V12.28H0.400005V21.64H5.00679e-06ZM40.2066 21.24V21.64H26.7266V0.039988H40.2066V0.43999H27.1266V10.48H36.9666V10.88H27.1266V21.24H40.2066ZM63.9784 0.43999H55.2584V12H63.9784C65.6318 12 66.7384 11.6 67.2984 10.8C67.8584 9.99999 68.1384 8.86666 68.1384 7.39999V4.59999C68.1384 3.37332 67.7918 2.37332 67.0984 1.59999C66.4318 0.826657 65.3918 0.43999 63.9784 0.43999ZM55.2584 21.64H54.8584V0.039988H63.9784C65.5251 0.039988 66.6718 0.479989 67.4184 1.35999C68.1651 2.21332 68.5384 3.29332 68.5384 4.59999V7.35999C68.5384 8.58666 68.3784 9.59999 68.0584 10.4C67.7384 11.1733 67.0984 11.7067 66.1384 12H66.5784C68.2051 12 69.4184 12.3733 70.2184 13.12C71.0184 13.84 71.4184 14.8933 71.4184 16.28V21.64H71.0184V16.28C71.0184 14.9733 70.6584 14 69.9384 13.36C69.2184 12.6933 68.0984 12.36 66.5784 12.36H55.2584V21.64ZM87.545 0.359989L102.265 16.92V0.039988H102.665V21.64H102.265V17.52L87.145 0.559988C87.1183 0.533322 87.0783 0.506656 87.025 0.47999C86.9983 0.453323 86.9717 0.43999 86.945 0.43999C86.9183 0.43999 86.8917 0.453323 86.865 0.47999C86.865 0.506656 86.865 0.533322 86.865 0.559988V21.64H86.465V0.47999C86.465 0.31999 86.5183 0.19999 86.625 0.119989C86.7317 0.0399888 86.8383 -1.14441e-05 86.945 -1.14441e-05C87.0517 -1.14441e-05 87.145 0.0266557 87.225 0.0799899C87.305 0.133323 87.4117 0.226655 87.545 0.359989ZM118.422 13.12V14.36H134.022V13.12C134.022 12.4 133.956 11.7333 133.822 11.12C133.716 10.5067 133.569 9.93332 133.382 9.39999L130.622 2.87999C130.329 2.18666 130.022 1.61332 129.702 1.15999C129.382 0.679989 128.849 0.43999 128.102 0.43999H124.182C123.382 0.43999 122.822 0.679989 122.502 1.15999C122.182 1.61332 121.889 2.17332 121.622 2.83999L119.062 9.39999C118.876 9.93332 118.716 10.5067 118.582 11.12C118.476 11.7333 118.422 12.4 118.422 13.12ZM134.022 21.64V14.76H118.422V21.64H118.022V13.12C118.022 12.3733 118.076 11.6933 118.182 11.08C118.316 10.44 118.489 9.82666 118.702 9.23999L121.262 2.67999C121.556 1.93332 121.889 1.30666 122.262 0.79999C122.636 0.293322 123.276 0.039988 124.182 0.039988H128.102C128.982 0.039988 129.596 0.293322 129.942 0.79999C130.316 1.30666 130.662 1.94666 130.982 2.71999L133.742 9.23999C133.956 9.82666 134.116 10.44 134.222 11.08C134.356 11.6933 134.422 12.3733 134.422 13.12V21.64H134.022ZM150.881 0.359989L165.601 16.92V0.039988H166.001V21.64H165.601V17.52L150.481 0.559988C150.454 0.533322 150.414 0.506656 150.361 0.47999C150.334 0.453323 150.308 0.43999 150.281 0.43999C150.254 0.43999 150.228 0.453323 150.201 0.47999C150.201 0.506656 150.201 0.533322 150.201 0.559988V21.64H149.801V0.47999C149.801 0.31999 149.854 0.19999 149.961 0.119989C150.068 0.0399888 150.174 -1.14441e-05 150.281 -1.14441e-05C150.388 -1.14441e-05 150.481 0.0266557 150.561 0.0799899C150.641 0.133323 150.748 0.226655 150.881 0.359989ZM182.078 21.64V0.039988H191.758C193.118 0.039988 194.211 0.186655 195.038 0.47999C195.891 0.773322 196.545 1.17332 196.998 1.67999C197.451 2.15999 197.758 2.74666 197.918 3.43999C198.078 4.10666 198.158 4.82666 198.158 5.59999V16.2C198.158 16.9733 198.078 17.6933 197.918 18.36C197.785 19.0267 197.491 19.6 197.038 20.08C196.585 20.56 195.931 20.9467 195.078 21.24C194.225 21.5067 193.118 21.64 191.758 21.64H182.078ZM191.758 0.43999H182.478V21.24H191.758C193.038 21.24 194.065 21.12 194.838 20.88C195.638 20.6133 196.251 20.2667 196.678 19.84C197.105 19.3867 197.385 18.8533 197.518 18.24C197.678 17.6 197.758 16.92 197.758 16.2V5.59999C197.758 4.87999 197.678 4.19999 197.518 3.55999C197.358 2.91999 197.065 2.37332 196.638 1.91999C196.211 1.46666 195.598 1.10666 194.798 0.83999C194.025 0.573323 193.011 0.43999 191.758 0.43999ZM227.402 21.24V21.64H213.922V0.039988H227.402V0.43999H214.322V10.48H224.162V10.88H214.322V21.24H227.402ZM254.334 0.039988V0.43999H245.454C244.334 0.43999 243.44 0.746657 242.774 1.35999C242.107 1.97332 241.774 2.74666 241.774 3.67999V6.95999C241.774 7.89332 241.96 8.54666 242.334 8.91999C242.707 9.29332 243.2 9.53332 243.814 9.63999L252.254 11.36C253.054 11.52 253.707 11.8667 254.214 12.4C254.747 12.9333 255.014 13.8933 255.014 15.28V17.6C255.014 18.7733 254.614 19.7467 253.814 20.52C253.014 21.2667 251.934 21.64 250.574 21.64H240.614V21.24H250.574C251.8 21.24 252.774 20.9067 253.494 20.24C254.24 19.5467 254.614 18.6667 254.614 17.6V15.28C254.614 14.0267 254.387 13.1733 253.934 12.72C253.507 12.24 252.92 11.92 252.174 11.76L243.734 10.04C243.04 9.90666 242.467 9.63999 242.014 9.23999C241.587 8.81332 241.374 8.05332 241.374 6.95999V3.67999C241.374 2.61332 241.747 1.74665 242.494 1.07999C243.24 0.386655 244.227 0.039988 245.454 0.039988H254.334Z" fill="white" fill-opacity="0.7"/>
</svg>
