<svg width="317" height="48" viewBox="0 0 317 48" fill="none" xmlns="http://www.w3.org/2000/svg">
<path d="M20.9545 1.52588e-05H27.9545V33C27.9545 35.9849 27.3636 38.5379 26.1818 40.6591C25.0152 42.7803 23.3712 44.4015 21.25 45.5227C19.1288 46.6288 16.6439 47.1818 13.7955 47.1818C11.1742 47.1818 8.81818 46.7046 6.72727 45.75C4.65152 44.7955 3.00758 43.4091 1.79545 41.5909C0.598485 39.7576 0 37.5303 0 34.9091H6.97727C6.97727 36.197 7.27273 37.3106 7.86364 38.25C8.4697 39.1894 9.29545 39.9243 10.3409 40.4546C11.4015 40.9697 12.6136 41.2273 13.9773 41.2273C15.4621 41.2273 16.7197 40.9167 17.75 40.2955C18.7955 39.6591 19.5909 38.7273 20.1364 37.5C20.6818 36.2727 20.9545 34.7727 20.9545 33V1.52588e-05ZM54.908 46.5455H47.4534L64.2034 1.52588e-05H72.317L89.067 46.5455H81.6125L68.4534 8.45456H68.0898L54.908 46.5455ZM108.589 1.52588e-05H117.111L131.93 36.1818H132.475L147.293 1.52588e-05H155.816V46.5455H149.134V12.8637H148.702L134.975 46.4773H129.43L115.702 12.8409H115.27V46.5455H108.589V1.52588e-05ZM175.235 1.52588e-05H183.212L195.372 21.1591H195.872L208.031 1.52588e-05H216.008L199.122 28.2727V46.5455H192.122V28.2727L175.235 1.52588e-05ZM235.439 46.5455V1.52588e-05H242.461V40.5H263.552V46.5455H235.439ZM316.091 40.3182V46.5455H286.614V40.3182H316.091ZM314.886 0.727287V6.95456H286.227V0.727287H314.886ZM306.318 23.4091V23.9773L288.886 46.5455H283.659V41.7955L298.227 23.7273L283.659 5.54547V0.727287H288.886L306.318 23.4091Z" fill="white"/>
</svg>
